# xmcd CD database file
#
# Track frame offsets:
#	150
#	17905
#	32058
#	46920
#	67868
#	85958
#	100300
#	128600
#	142865
#
# Disc length: 2161 seconds
#
# Revision: 4
# Processed by: cddbd v1.5.2PL0 Copyright (c) Steve Scherf et al.
# Submitted via: CDex 1.51
#
DISCID=6b086f09
DTITLE=Lucky Peterson - Lucky Strikes!
DYEAR=1989
DGENRE=Blues
TTITLE0=Over My Head
TTITLE1=Pounding Of My Heart
TTITLE2=Can't Get No Loving On The Telephone
TTITLE3=She Spread Her Wings (And Flew Away)
TTITLE4=Lucky Strikes
TTITLE5=Dead Cat On The Line
TTITLE6=Bad Feeling
TTITLE7=Heart Attack
TTITLE8=Earlene
EXTD=YEAR: 1989
EXTT0=
EXTT1=
EXTT2=
EXTT3=
EXTT4=
EXTT5=
EXTT6=
EXTT7=
EXTT8=
PLAYORDER=
